HIERARCHY
ROOT joint_0
{
	OFFSET 0.000000 0.000000 0.000000
	CHANNELS 6 Xposition Yposition Zposition Zrotation Yrotation Xrotation 
	JOINT joint_1
	{
		OFFSET 0.587158 0.057678 95.682007
		CHANNELS 3 Zrotation Yrotation Xrotation
		JOINT joint_2
		{
			OFFSET -7.116699 -0.219910 87.157959
			CHANNELS 3 Zrotation Yrotation Xrotation
			JOINT joint_3
			{
				OFFSET -5.892822 -0.290222 87.151001
				CHANNELS 3 Zrotation Yrotation Xrotation
				JOINT joint_4
				{
					OFFSET 5.544678 -0.099609 123.768066
					CHANNELS 3 Zrotation Yrotation Xrotation
					JOINT joint_5
					{
						OFFSET 41.981201 4.519775 84.257935
						CHANNELS 3 Zrotation Yrotation Xrotation
						End Site
						{
							OFFSET 0.000000 0.000000 0.000000
						}
					}
				}
				JOINT joint_6
				{
					OFFSET 3.940918 -26.976501 69.308105
					CHANNELS 3 Zrotation Yrotation Xrotation
					JOINT joint_7
					{
						OFFSET 4.776123 -152.592468 -16.842041
						CHANNELS 3 Zrotation Yrotation Xrotation
						JOINT joint_8
						{
							OFFSET 54.421875 -30.424072 -248.864014
							CHANNELS 3 Zrotation Yrotation Xrotation
							JOINT joint_9
							{
								OFFSET 42.120117 -33.387878 -236.524963
								CHANNELS 3 Zrotation Yrotation Xrotation
								End Site
								{
									OFFSET 0.000000 0.000000 0.000000
								}
							}
						}
					}
				}
				JOINT joint_10
				{
					OFFSET 2.312012 26.904114 69.425049
					CHANNELS 3 Zrotation Yrotation Xrotation
					JOINT joint_11
					{
						OFFSET 0.971436 152.197815 -20.626953
						CHANNELS 3 Zrotation Yrotation Xrotation
						JOINT joint_12
						{
							OFFSET 49.954102 28.991455 -249.970093
							CHANNELS 3 Zrotation Yrotation Xrotation
							JOINT joint_13
							{
								OFFSET 48.146973 19.598389 -236.919922
								CHANNELS 3 Zrotation Yrotation Xrotation
								End Site
								{
									OFFSET 0.000000 0.000000 0.000000
								}
							}
						}
					}
				}
			}
		}
	}
	JOINT joint_14
	{
		OFFSET 16.305664 -89.442932 -108.224976
		CHANNELS 3 Zrotation Yrotation Xrotation
		JOINT joint_15
		{
			OFFSET -22.282471 13.437134 -412.904968
			CHANNELS 3 Zrotation Yrotation Xrotation
			JOINT joint_16
			{
				OFFSET -45.426025 14.484802 -445.892029
				CHANNELS 3 Zrotation Yrotation Xrotation
				JOINT joint_17
				{
					OFFSET 173.389404 -9.944031 -76.473001
					CHANNELS 3 Zrotation Yrotation Xrotation
					End Site
					{
						OFFSET 0.000000 0.000000 0.000000
					}
				}
			}
		}
	}
	JOINT joint_18
	{
		OFFSET 13.392822 89.408875 -108.653992
		CHANNELS 3 Zrotation Yrotation Xrotation
		JOINT joint_19
		{
			OFFSET -29.032959 24.483521 -411.977966
			CHANNELS 3 Zrotation Yrotation Xrotation
			JOINT joint_20
			{
				OFFSET -30.530029 28.986328 -446.453018
				CHANNELS 3 Zrotation Yrotation Xrotation
				JOINT joint_21
				{
					OFFSET 170.330078 33.400757 -76.698997
					CHANNELS 3 Zrotation Yrotation Xrotation
					End Site
					{
						OFFSET 0.000000 0.000000 0.000000
					}
				}
			}
		}
	}
}
MOTION
Frames: 18
Frame Time: 0.016667
-1693.729248 863.309021 1058.441040 0.639658 5.676778 2.658484 -0.482023 -8.271307 -4.408889 -0.013931 1.153085 0.873495 -0.117180 -1.656529 -0.546726 -0.933789 -14.798010 3.669890 0.000000 0.000000 0.000000 -0.656610 2.025598 1.831019 0.449000 1.920006 2.725511 -0.316099 -0.609577 -2.272117 0.000000 0.000000 0.000000 1.566014 1.954282 0.556192 0.109435 1.763827 -0.596479 0.493780 -0.192323 2.523374 0.000000 0.000000 0.000000 0.379986 -2.938094 -0.964038 0.518231 2.707442 0.011971 0.282229 -5.341508 -0.182641 0.000000 0.000000 0.000000 -6.130812 -5.600630 -3.209167 -5.949849 0.998934 -1.135996 -6.057004 -1.655733 -2.386161 0.000000 0.000000 0.000000 
-1694.332520 863.397217 1058.275024 0.677225 5.332913 2.670373 -0.497335 -7.582413 -4.410607 -0.034258 1.089231 0.884192 -0.138509 -1.514418 -0.553545 -0.921355 -14.991219 3.672753 0.000000 0.000000 0.000000 -0.725676 1.908693 1.827968 0.457116 1.795291 2.692030 -0.267452 -0.779064 -2.132804 0.000000 0.000000 0.000000 1.531665 1.829522 0.433866 0.116109 1.643104 -0.495435 0.468903 -0.285899 2.437854 0.000000 0.000000 0.000000 0.370514 -2.673309 -0.934817 0.509949 2.872547 -0.062478 0.260110 -5.427762 -0.197245 0.000000 0.000000 0.000000 -6.132859 -5.358652 -3.319484 -5.966827 1.186879 -1.052030 -6.083588 -1.717724 -2.386611 0.000000 0.000000 0.000000 
-1694.865601 863.513184 1058.037964 0.667558 4.972871 2.680034 -0.496990 -6.896873 -4.407477 -0.039270 1.025721 0.890960 -0.144004 -1.377378 -0.557767 -0.909579 -15.200950 3.678688 0.000000 0.000000 0.000000 -0.767852 1.808707 1.851218 0.453017 1.689606 2.621488 -0.218205 -0.925053 -1.971324 0.000000 0.000000 0.000000 1.465634 1.728006 0.269188 0.132433 1.550616 -0.360010 0.441502 -0.356287 2.330152 0.000000 0.000000 0.000000 0.374231 -2.418689 -0.909172 0.517099 3.098933 -0.135009 0.250311 -5.554291 -0.208786 0.000000 0.000000 0.000000 -6.115555 -5.075076 -3.450865 -5.971421 1.355124 -0.939417 -6.095272 -1.786809 -2.379050 0.000000 0.000000 0.000000 
-1695.354004 863.642639 1057.754028 0.635597 4.590188 2.688980 -0.490570 -6.195000 -4.402188 -0.038359 0.957921 0.896590 -0.143299 -1.240960 -0.560069 -0.896153 -15.421114 3.682614 0.000000 0.000000 0.000000 -0.791851 1.718251 1.885894 0.442171 1.595109 2.530976 -0.169822 -1.052776 -1.800274 0.000000 0.000000 0.000000 1.385131 1.639071 0.078625 0.153090 1.472915 -0.208070 0.415652 -0.401128 2.219723 0.000000 0.000000 0.000000 0.383991 -2.154802 -0.885274 0.531083 3.361198 -0.206478 0.245666 -5.703987 -0.219411 0.000000 0.000000 0.000000 -6.088066 -4.756283 -3.596575 -5.970489 1.518055 -0.809095 -6.100576 -1.862378 -2.367376 0.000000 0.000000 0.000000 
-1695.752930 863.724670 1057.494019 0.621108 4.220036 2.694679 -0.490296 -5.548830 -4.402611 -0.042346 0.888570 0.904840 -0.147859 -1.113968 -0.565336 -0.884551 -15.588250 3.682864 0.000000 0.000000 0.000000 -0.806887 1.640849 1.911266 0.438226 1.515116 2.476126 -0.143315 -1.108039 -1.694983 0.000000 0.000000 0.000000 1.320083 1.564108 -0.086304 0.166004 1.406485 -0.093343 0.406310 -0.382968 2.165587 0.000000 0.000000 0.000000 0.388661 -1.878426 -0.863624 0.537186 3.583647 -0.260201 0.236931 -5.832942 -0.230642 0.000000 0.000000 0.000000 -6.068079 -4.440391 -3.719188 -5.974504 1.665498 -0.701695 -6.111492 -1.934295 -2.358809 0.000000 0.000000 0.000000 
-1696.039307 863.734863 1057.277954 0.653800 3.860940 2.695579 -0.505548 -4.966421 -4.414954 -0.059756 0.811943 0.920571 -0.166760 -0.991802 -0.576603 -0.876241 -15.668840 3.677923 0.000000 0.000000 0.000000 -0.819002 1.570545 1.918458 0.449605 1.443307 2.486539 -0.153073 -1.049646 -1.703558 0.000000 0.000000 0.000000 1.281789 1.496706 -0.205616 0.164350 1.342792 -0.039536 0.424179 -0.265663 2.205912 0.000000 0.000000 0.000000 0.380278 -1.568761 -0.847280 0.524669 3.733954 -0.281935 0.216463 -5.926385 -0.244974 0.000000 0.000000 0.000000 -6.067447 -4.124449 -3.803779 -5.993388 1.789094 -0.633648 -6.138050 -2.000013 -2.358318 0.000000 0.000000 0.000000 
-1696.237305 863.697510 1057.084961 0.704069 3.515671 2.692707 -0.527002 -4.442350 -4.434073 -0.081970 0.734511 0.941152 -0.191046 -0.877977 -0.591340 -0.869169 -15.696009 3.668502 0.000000 0.000000 0.000000 -0.822096 1.512973 1.917461 0.467610 1.385690 2.530796 -0.184713 -0.918262 -1.777223 0.000000 0.000000 0.000000 1.260245 1.443034 -0.301833 0.155152 1.289962 -0.021045 0.458617 -0.084846 2.302505 0.000000 0.000000 0.000000 0.366947 -1.248437 -0.833294 0.504447 3.845142 -0.285461 0.191994 -6.001101 -0.259989 0.000000 0.000000 0.000000 -6.074619 -3.813186 -3.865417 -6.017408 1.897887 -0.587826 -6.170280 -2.063774 -2.360661 0.000000 0.000000 0.000000 
-1696.371826 863.619507 1056.922974 0.726569 3.227174 2.688437 -0.538855 -4.030108 -4.453379 -0.094114 0.675114 0.956956 -0.204784 -0.791479 -0.602757 -0.863978 -15.699516 3.659980 0.000000 0.000000 0.000000 -0.812840 1.488963 1.917900 0.479634 1.363310 2.570348 -0.216016 -0.780381 -1.843706 0.000000 0.000000 0.000000 1.246531 1.423108 -0.386639 0.146693 1.270117 -0.019307 0.493515 0.093996 2.402313 0.000000 0.000000 0.000000 0.361405 -0.982031 -0.814581 0.494110 3.942838 -0.294629 0.177040 -6.066194 -0.270288 0.000000 0.000000 0.000000 -6.073144 -3.557461 -3.912012 -6.028235 2.006140 -0.554485 -6.190744 -2.127256 -2.357708 0.000000 0.000000 0.000000 
-1696.450439 863.497009 1056.787964 0.697023 3.007798 2.682210 -0.531722 -3.751834 -4.473436 -0.086604 0.641236 0.968424 -0.198435 -0.740599 -0.610572 -0.862631 -15.690931 3.657751 0.000000 0.000000 0.000000 -0.783659 1.511885 1.927851 0.479094 1.390276 2.586996 -0.238507 -0.655790 -1.870866 0.000000 0.000000 0.000000 1.234624 1.446575 -0.471833 0.142338 1.294016 -0.025774 0.525111 0.254566 2.493359 0.000000 0.000000 0.000000 0.370014 -0.792398 -0.783387 0.502563 4.041873 -0.324315 0.178011 -6.129818 -0.273529 0.000000 0.000000 0.000000 -6.054075 -3.377109 -3.946420 -6.015369 2.131448 -0.529060 -6.190764 -2.198136 -2.344089 0.000000 0.000000 0.000000 
-1696.466553 863.332886 1056.683960 0.640310 2.846471 2.675133 -0.514843 -3.588387 -4.495316 -0.068663 0.626883 0.976451 -0.181244 -0.716067 -0.614544 -0.862414 -15.660093 3.655039 0.000000 0.000000 0.000000 -0.743092 1.567925 1.940225 0.472415 1.451905 2.597366 -0.260689 -0.524081 -1.890522 0.000000 0.000000 0.000000 1.229365 1.503417 -0.548616 0.139023 1.350688 -0.046641 0.557044 0.412258 2.587402 0.000000 0.000000 0.000000 0.386112 -0.658093 -0.747336 0.520672 4.127566 -0.360197 0.188130 -6.185854 -0.272328 0.000000 0.000000 0.000000 -6.026778 -3.254201 -3.965594 -5.989280 2.256880 -0.516618 -6.179127 -2.269244 -2.325135 0.000000 0.000000 0.000000 
-1696.429199 863.143005 1056.624023 0.584538 2.748728 2.670763 -0.501180 -3.522168 -4.513514 -0.053912 0.622159 0.979514 -0.166853 -0.708686 -0.617053 -0.860729 -15.604802 3.647346 0.000000 0.000000 0.000000 -0.710075 1.636347 1.943107 0.467338 1.525442 2.618350 -0.286683 -0.388968 -1.929187 0.000000 0.000000 0.000000 1.243894 1.583803 -0.589950 0.134759 1.428521 -0.088079 0.583161 0.549609 2.660956 0.000000 0.000000 0.000000 0.401917 -0.575797 -0.720425 0.538117 4.181773 -0.383423 0.200173 -6.222444 -0.269170 0.000000 0.000000 0.000000 -6.002951 -3.181041 -3.968074 -5.963823 2.346162 -0.519243 -6.165187 -2.320651 -2.308939 0.000000 0.000000 0.000000 
-1696.310425 862.913757 1056.620972 0.538859 2.734214 2.670917 -0.494870 -3.579726 -4.531822 -0.045605 0.623810 0.981429 -0.158752 -0.718143 -0.617834 -0.853688 -15.511951 3.624786 0.000000 0.000000 0.000000 -0.697909 1.717088 1.928067 0.468652 1.609614 2.667219 -0.322052 -0.241588 -2.011366 0.000000 0.000000 0.000000 1.291528 1.691294 -0.577477 0.127024 1.529151 -0.163936 0.602901 0.666657 2.711273 0.000000 0.000000 0.000000 0.414767 -0.559604 -0.707397 0.551734 4.192925 -0.387128 0.212271 -6.232610 -0.264473 0.000000 0.000000 0.000000 -5.986994 -3.169002 -3.946395 -5.942632 2.379065 -0.545718 -6.150784 -2.341933 -2.298346 0.000000 0.000000 0.000000 
-1696.138062 862.658875 1056.661987 0.494417 2.782789 2.673961 -0.490861 -3.733388 -4.547212 -0.039413 0.635135 0.978465 -0.152286 -0.745716 -0.615823 -0.845049 -15.394690 3.596236 0.000000 0.000000 0.000000 -0.697410 1.810684 1.901919 0.471659 1.705759 2.727081 -0.361219 -0.090847 -2.112615 0.000000 0.000000 0.000000 1.355042 1.822412 -0.530014 0.118373 1.651539 -0.260605 0.616865 0.763054 2.741377 0.000000 0.000000 0.000000 0.427260 -0.594738 -0.704007 0.564567 4.172528 -0.377834 0.226202 -6.223793 -0.257886 0.000000 0.000000 0.000000 -5.974558 -3.205984 -3.908675 -5.922145 2.375517 -0.587115 -6.134037 -2.343787 -2.290451 0.000000 0.000000 0.000000 
-1696.002319 862.422607 1056.718018 0.455698 2.840107 2.678383 -0.492985 -3.882560 -4.557668 -0.039884 0.648812 0.974630 -0.152386 -0.773978 -0.613263 -0.836462 -15.300131 3.572445 0.000000 0.000000 0.000000 -0.688077 1.893817 1.873147 0.470766 1.792238 2.765908 -0.392508 0.034500 -2.189729 0.000000 0.000000 0.000000 1.413625 1.953608 -0.478986 0.113688 1.775162 -0.344090 0.620875 0.821958 2.737050 0.000000 0.000000 0.000000 0.438751 -0.634001 -0.709100 0.574990 4.137477 -0.357615 0.239439 -6.209299 -0.251278 0.000000 0.000000 0.000000 -5.965039 -3.248224 -3.874244 -5.905867 2.357827 -0.622929 -6.119293 -2.337897 -2.284980 0.000000 0.000000 0.000000 
-1695.937500 862.231079 1056.792969 0.420443 2.891272 2.685398 -0.502069 -3.998873 -4.561483 -0.048170 0.665051 0.971009 -0.160337 -0.800141 -0.611048 -0.828091 -15.246533 3.556913 0.000000 0.000000 0.000000 -0.660198 1.960028 1.841655 0.462932 1.863604 2.770484 -0.410592 0.125253 -2.219748 0.000000 0.000000 0.000000 1.456793 2.085041 -0.432010 0.116320 1.901923 -0.402372 0.608462 0.820403 2.675289 0.000000 0.000000 0.000000 0.450184 -0.662306 -0.727399 0.582931 4.086908 -0.323344 0.252226 -6.189743 -0.244578 0.000000 0.000000 0.000000 -5.957003 -3.280444 -3.853885 -5.894961 2.325648 -0.641754 -6.106695 -2.323640 -2.282152 0.000000 0.000000 0.000000 
-1695.910156 862.058105 1056.881958 0.390934 2.950737 2.693671 -0.516808 -4.108284 -4.559748 -0.062877 0.681414 0.964729 -0.174358 -0.826998 -0.606378 -0.820180 -15.215677 3.546819 0.000000 0.000000 0.000000 -0.624652 2.016159 1.806358 0.451141 1.925611 2.754283 -0.420716 0.190519 -2.225092 0.000000 0.000000 0.000000 1.493130 2.216728 -0.382579 0.122996 2.030349 -0.447326 0.585944 0.780976 2.578608 0.000000 0.000000 0.000000 0.460470 -0.694210 -0.754025 0.588295 4.021445 -0.278047 0.264181 -6.164526 -0.237919 0.000000 0.000000 0.000000 -5.951865 -3.317378 -3.836854 -5.888316 2.279184 -0.654691 -6.096133 -2.301911 -2.281711 0.000000 0.000000 0.000000 
-1695.913940 861.883362 1056.952026 0.373873 3.007639 2.698405 -0.533195 -4.194038 -4.554520 -0.079541 0.692705 0.960402 -0.190604 -0.844918 -0.603972 -0.814765 -15.201720 3.543283 0.000000 0.000000 0.000000 -0.600280 2.057584 1.776838 0.438149 1.971104 2.721825 -0.426360 0.229690 -2.225990 0.000000 0.000000 0.000000 1.516678 2.322437 -0.343600 0.129369 2.134311 -0.476559 0.568690 0.759136 2.501012 0.000000 0.000000 0.000000 0.466735 -0.726870 -0.774962 0.590175 3.960222 -0.233832 0.272551 -6.141374 -0.232945 0.000000 0.000000 0.000000 -5.950444 -3.360142 -3.813111 -5.883533 2.242795 -0.672970 -6.088882 -2.284286 -2.281934 0.000000 0.000000 0.000000 
-1695.951904 861.692322 1056.985962 0.374754 3.061995 2.695840 -0.552288 -4.248116 -4.544619 -0.099451 0.696329 0.956805 -0.210125 -0.852831 -0.601612 -0.812631 -15.203891 3.547633 0.000000 0.000000 0.000000 -0.591814 2.083144 1.755284 0.424095 1.998266 2.671059 -0.426194 0.230322 -2.224886 0.000000 0.000000 0.000000 1.527938 2.394712 -0.319643 0.134603 2.206118 -0.487548 0.560672 0.769912 2.456065 0.000000 0.000000 0.000000 0.466485 -0.762816 -0.782233 0.587001 3.908345 -0.194713 0.275210 -6.123705 -0.230784 0.000000 0.000000 0.000000 -5.954565 -3.413140 -3.773490 -5.880434 2.223678 -0.704340 -6.086353 -2.276555 -2.282304 0.000000 0.000000 0.000000 
